<?xml version="1.0" encoding="UTF-8" standalone="no"?>
<!-- Created with Inkscape (http://www.inkscape.org/) -->

<svg
   width="100mm"
   height="100mm"
   viewBox="0 0 100 100"
   version="1.1"
   id="svg138707"
   xmlns="http://www.w3.org/2000/svg"
   xmlns:svg="http://www.w3.org/2000/svg">
  <defs
     id="defs138704" />
  <g
     id="layer1"
     style="display:none">
    <g
       id="g138602"
       style="display:inline"
       transform="matrix(1.3985405,0,0,1.3985405,0.73740663,9.5580271)">
      <ellipse
         style="display:inline;fill:#a7584b;fill-opacity:1;fill-rule:evenodd;stroke-width:0.264583"
         id="path459"
         cy="30.411043"
         cx="36.525215"
         rx="23.876371"
         ry="23.889994" />
      <path
         style="display:inline;fill:#a7584b;fill-opacity:1;stroke:none;stroke-width:0.264583px;stroke-linecap:butt;stroke-linejoin:miter;stroke-opacity:1"
         d="M 13.480988,25.064389 6.9986953,22.153973 c -1.618397,-1.78301 -0.64973,-4.246287 -0.03307,-5.738151 1.178692,-2.259569 2.329211,-3.556277 4.1671887,-3.671094 l 7.32565,3.191537 z"
         id="path43800" />
      <path
         style="display:inline;fill:#a7584b;fill-opacity:1;stroke:#f7ebbe;stroke-width:0.330729;stroke-linecap:round;stroke-linejoin:round;stroke-miterlimit:4;stroke-dasharray:none;stroke-opacity:1"
         d="M 6.0127383,12.834398 8.0555963,8.8944315 11.765715,12.156202 9.3004903,7.3235515 12.568989,6.8241755 9.6086433,5.9410565 13.486599,2.6779892 8.9263123,4.2310358 9.1299383,0.27347832 7.3470423,3.7233915 4.9947343,0.23614952 5.5876553,4.3686366 1.6298543,3.6463837 4.9908443,6.2959825 0.35330627,9.6497575 6.0636453,8.5835625 Z"
         id="path44504" />
      <path
         id="path6447"
         style="display:inline;mix-blend-mode:normal;fill:#f7ebbe;fill-opacity:1;stroke:none;stroke-width:0.264583;stroke-linejoin:round;stroke-miterlimit:4;stroke-dasharray:none;stroke-opacity:1"
         d="m 50.134047,16.568267 -2.578137,0.549321 -1.163238,1.561145 -2.917651,1.169437 -1.22783,3.028239 c 0,0 2.098064,-1.228349 2.759519,-1.526005 -1.529619,3.406511 -2.686182,9.584854 -2.779675,11.071675 -1.75818,-0.406887 -2.680973,-1.763715 -2.680973,-1.763715 l -0.508495,3.571875 c 0,0 1.087255,0.543726 2.765206,0.596344 l -0.146246,1.426787 2.397271,-0.643372 -0.0057,-0.993738 c 1.625333,0.02923 6.200653,-2.153356 7.775752,-3.72432 1.7131,-1.33024 3.419094,-4.424534 3.747574,-5.635831 0.355534,-0.661458 0.44545,-2.479952 0.222211,-3.215824 -0.289388,-2.00918 -1.566609,-3.022484 -2.133722,-3.379122 -0.966624,-0.712142 -2.155838,-0.594296 -3.321243,-0.637171 0,0 -1.246952,-0.01705 -1.929083,0.140044 0.306944,-0.479415 1.724444,-1.595769 1.724444,-1.595769 z m -0.25735,3.41788 c 0.74621,0.02474 1.638081,-0.07102 2.714564,1.104325 0.732716,1.066956 0.719664,1.949669 0.589111,3.389458 -0.150421,0.827918 -0.253487,1.077518 -0.688329,1.998843 -0.414814,0.878887 -0.867231,1.440322 -1.623674,2.201933 -0.724977,0.729933 -1.310847,1.21747 -2.06034,1.715141 -1.685462,1.187381 -2.820651,1.624282 -4.746998,1.961636 0.130606,-3.988969 1.505202,-8.006064 2.933674,-11.84372 0.562485,-0.228626 1.29931,-0.501554 2.881992,-0.527616 z" />
      <path
         style="display:inline;mix-blend-mode:normal;fill:#f7ebbe;fill-opacity:1;stroke:none;stroke-width:0.264583px;stroke-linecap:butt;stroke-linejoin:miter;stroke-opacity:1"
         d="m 9.7077403,17.078972 c 0.165277,0.48888 0.03126,0.951348 -0.339097,1.017295 -1.145919,-0.619731 -1.870887,-2.397073 -1.870887,-2.397073 -0.502801,-0.678196 -0.479415,-2.42046 -0.479415,-2.42046 0.08185,-0.947136 0.432642,-1.672105 0.432642,-1.672105 0.385871,-0.631424 0.479415,-1.3447 0.479415,-1.3447 0.140317,-1.3446995 -0.233862,-1.8007275 -0.233862,-1.8007275 -0.456028,-0.947136 -1.005601,-1.204384 -1.005601,-1.204384 -0.327405,-0.15201 -0.08185,-0.666503 -0.08185,-0.666503 0.07016,-0.280633 0.38587,-0.549573 0.38587,-0.549573 0.280633,-0.152009 0.584652,0.187089 0.584652,0.187089 0.572959,0.467722 0.865285,1.414858 0.865285,1.414858 0.584653,1.134225 0.198782,3.1571205 0.198782,3.1571205 -0.128623,0.748355 -0.678197,1.531789 -0.830206,2.221678 0,0 -0.315712,0.876978 0.304019,2.15152 0,0 0.339099,0.701582 0.900365,1.262848 0,0 0.432642,0.409256 0.689888,0.643117 z"
         id="path95125" />
      <path
         style="display:inline;mix-blend-mode:normal;fill:none;fill-opacity:1;stroke:#a7584b;stroke-width:0.15875;stroke-linecap:round;stroke-linejoin:miter;stroke-miterlimit:4;stroke-dasharray:none;stroke-opacity:1"
         d="m 6.5155393,7.1632735 c 0.15201,0.175396 0.350791,0.09354 0.561266,-0.01169 0.198782,-0.175399 0.315712,-0.444339 0.315712,-0.444339 0.105238,-0.374177 0.04677,-0.724968 -0.163702,-0.77174"
         id="path99615" />
      <path
         style="display:inline;mix-blend-mode:normal;fill:none;fill-opacity:1;stroke:#f7ebbe;stroke-width:0.714375;stroke-linecap:butt;stroke-linejoin:miter;stroke-miterlimit:4;stroke-dasharray:none;stroke-opacity:1"
         d="m 8.0074033,21.449386 c 1.005601,-0.491108 0.65481,-1e-6 2.1982917,-1.37978 0.958829,-1.19269 1.262848,-1.987817 1.613639,-2.92326 0.397564,-1.683798 -0.02339,-3.297438 -0.02339,-3.297438"
         id="path104992" />
      <path
         style="display:inline;mix-blend-mode:normal;fill:none;stroke:#f7ebbe;stroke-width:0.635;stroke-linecap:butt;stroke-linejoin:miter;stroke-miterlimit:4;stroke-dasharray:none;stroke-opacity:1"
         d="m 18.881932,17.052802 -7.88111,-3.507913 c -3.3171617,0.578178 -5.0207157,6.520395 -3.2312917,7.799846 l 7.6278747,3.343623 c 2.871659,-0.804988 4.639888,-5.649321 3.484527,-7.635556 z"
         id="path109078" />
      <path
         style="color:#000000;display:inline;mix-blend-mode:normal;fill:#f7ebbe;stroke-linecap:round;stroke-linejoin:round;-inkscape-stroke:none"
         d="m 14.926266,24.857715 c -0.612854,2.612304 -0.716454,4.846368 -0.693064,5.54795 0.02339,11.903517 9.77021,22.538806 22.445467,22.398489 12.30108,0.07016 22.515625,-10.035874 22.515625,-22.421875 0,-12.386001 -10.076568,-22.4199215 -22.515625,-22.4199215 -5.623288,0.04309 -12.34451,2.0417635 -17.793346,8.7167305 m 0,0 c 0,0 -0.720736,0.236073 -0.580419,-0.301807 5.544947,-6.8607995 12.008787,-9.1607595 18.397151,-9.1607595 12.776726,0 23.119192,10.4393035 23.119192,23.1657575 0,12.726455 -10.389238,23.212531 -23.165964,23.212531 -12.776727,0 -23.119192,-10.486076 -23.119192,-23.212531 0,-3.181613 0.453213,-4.490659 0.696769,-5.789845 0.678196,-0.678196 0.693406,0.265281 0.693406,0.265281"
         id="path113920" />
      <path
         id="path118476"
         style="display:inline;mix-blend-mode:normal;fill:#f7ebbe;fill-opacity:1;stroke:none;stroke-width:0.264583px;stroke-linecap:butt;stroke-linejoin:miter;stroke-opacity:1"
         d="m 30.167308,22.214951 c -1.643951,0.02921 -3.554232,1.353101 -3.808553,1.512052 l 0.897102,-1.424202 -2.414323,0.587561 c 0,0 -1.74303,2.831752 -1.83658,5.743317 -1.588722,-2.17475 -3.516342,-4.146624 -4.976441,-2.560566 -1.403165,1.789036 0.806675,4.000032 4.384746,5.052404 -0.01169,0.537882 -1.144666,4.901986 -2.653068,4.083474 l -1.928048,6.280234 c 3.706694,-0.339095 5.397473,-5.402866 6.017204,-8.735383 1.742262,4.314733 3.089362,6.816 5.357812,7.342188 1.847501,0.409255 4.153286,-0.559604 5.474602,0.165364 l 5.7335,-2.048454 c 0,0 -1.262317,-0.59145 -3.764629,-0.451136 -1.964431,-0.01169 -3.328107,0.536467 -5.596557,0.47801 -3.342542,-0.146249 -4.772221,-3.859422 -6.391858,-7.106544 3.892964,-0.968878 6.385288,-2.612435 7.79229,-6.071466 0.304019,-1.239461 -0.127593,-2.553949 -1.788007,-2.811196 -0.162237,-0.02741 -0.329128,-0.03868 -0.499192,-0.03566 z m -1.72806,2.04587 c 0.476832,-0.0046 0.919298,0.157093 1.240235,0.605647 1.208225,1.688677 -1.493975,3.965474 -2.29185,4.466913 -0.797875,0.501435 -2.502499,0.888447 -3.087151,0.865063 -0.08185,-1.707185 1.052632,-3.835278 1.239716,-4.642094 0,0 1.580745,-1.282861 2.89905,-1.295529 z m -8.699211,2.629297 c 1.185301,-0.0055 2.902148,2.94504 2.902148,2.94504 l -0.06615,0.826823 c 0,0 -4.472021,-2.189637 -3.365169,-3.50573 0.155651,-0.185076 0.335208,-0.265236 0.529167,-0.266133 z" />
      <path
         id="path135960"
         style="display:inline;mix-blend-mode:normal;fill:#f7ebbe;fill-opacity:1;stroke:none;stroke-width:0.1;stroke-linecap:butt;stroke-linejoin:miter;stroke-miterlimit:4;stroke-dasharray:none;stroke-opacity:1"
         d="m 39.392583,19.273012 c -0.945941,-0.0292 -1.714532,0.213299 -2.992065,0.946195 -3.538032,2.029702 -2.38125,5.589323 -1.752864,6.101953 -1.620573,0.826823 -7.031559,6.516053 -4.795573,9.706901 2.235986,3.190849 5.638932,0.644922 7.805208,-1.07487 l 0.727604,-3.621484 c -1.008724,1.02526 -4.734605,4.845222 -6.151562,2.877344 -1.629124,-2.262534 1.488281,-5.60586 3.009635,-7.375261 0.54428,0.547299 3.818644,0.914871 3.919141,-0.314192 0.100497,-1.229064 -1.852083,-1.736328 -3.588412,-0.677995 -0.347265,-0.08268 -1.4019,-2.487419 0.84336,-3.753776 2.245259,-1.266357 3.803385,0.148829 4.266406,1.174089 l 1.30638,-2.612761 c -0.450617,-0.539502 -1.103945,-1.330047 -2.597258,-1.376143 z m -2.367296,6.650757 c 0.01752,-1.48e-4 0.03544,-2.9e-5 0.05323,5.29e-4 0.569169,0.01741 0.975651,0.429948 0.975651,0.429948 0,0 -0.474562,0.344371 -0.975651,0.314193 -0.501089,-0.03018 -1.008724,-0.413411 -1.008724,-0.413411 0,0 0.412255,-0.326658 0.955498,-0.331245 z" />
    </g>
  </g>
  <g
     id="layer5">
    <g
       id="g178499"
       style="display:inline"
       transform="matrix(1.5005756,0,0,1.3739741,-100.97591,5.4302379)">
      <rect
         style="opacity:1;fill:#e3d16d;fill-opacity:1;stroke:none;stroke-width:0.1;stroke-linecap:round;stroke-linejoin:round;stroke-miterlimit:4;stroke-dasharray:none;stroke-opacity:1"
         id="rect138809"
         width="66.649422"
         height="43.075436"
         x="67.291451"
         y="10.490381" />
      <circle
         style="opacity:1;fill:#b3a64e;fill-opacity:1;stroke:none;stroke-width:0.1;stroke-linecap:round;stroke-linejoin:round;stroke-miterlimit:4;stroke-dasharray:none;stroke-opacity:1"
         id="path142908"
         cx="68.443756"
         cy="11.972213"
         r="0.39317852" />
      <circle
         style="display:inline;opacity:1;fill:#b3a64e;fill-opacity:1;stroke:none;stroke-width:0.1;stroke-linecap:round;stroke-linejoin:round;stroke-miterlimit:4;stroke-dasharray:none;stroke-opacity:1"
         id="path142908-6"
         cx="68.223053"
         cy="52.279591"
         r="0.39317852" />
      <circle
         style="display:inline;opacity:1;fill:#b3a64e;fill-opacity:1;stroke:none;stroke-width:0.1;stroke-linecap:round;stroke-linejoin:round;stroke-miterlimit:4;stroke-dasharray:none;stroke-opacity:1"
         id="path142908-8"
         cx="132.68027"
         cy="52.280014"
         r="0.39317852" />
      <circle
         style="display:inline;opacity:1;fill:#547d8c;fill-opacity:1;stroke:none;stroke-width:0.1;stroke-linecap:round;stroke-linejoin:round;stroke-miterlimit:4;stroke-dasharray:none;stroke-opacity:1"
         id="path142908-3"
         cx="132.67821"
         cy="11.964128"
         r="0.39317852" />
      <path
         style="color:#000000;opacity:1;fill:#547d8c;stroke-width:0.752267;stroke-linecap:round;stroke-linejoin:round;-inkscape-stroke:none"
         d="m 69.212532,13.230072 0.393223,-0.393179 61.772875,0.0015 0.3939,0.39464 -0.003,37.660023 -0.42478,0.428772 -61.70404,-4.28e-4 -0.428258,-0.424474 z"
         id="rect153007" />
      <path
         style="opacity:1;fill:#f4f3de;fill-opacity:1;stroke:none;stroke-width:0.264583px;stroke-linecap:butt;stroke-linejoin:miter;stroke-opacity:1"
         d="m 76.832262,29.917649 6.109908,-3.562567 0.636267,-0.002 6.330455,3.91575 0.177726,0.427415 -0.782785,8.353736 -0.284708,0.572187 -5.865123,3.482846 -0.784083,0.108662 -6.29189,-3.951863 -0.428508,-0.744606 0.858758,-8.09049 z"
         id="path164881" />
      <path
         style="opacity:1;fill:#f4f3de;fill-opacity:1;stroke:none;stroke-width:0.264583px;stroke-linecap:butt;stroke-linejoin:miter;stroke-opacity:1"
         d="m 121.65319,32.39409 c -2.26858,0.08362 -2.35517,-1.914216 -2.35517,-1.914216 l -0.008,-13.881404 4.7253,-1.141016 v 11.840104 c 0,0 0.0992,0.649056 0.60358,0.649056 0.50436,0 0.5829,-0.591178 0.5829,-0.591178 l 0.0249,-12.183235 4.76663,-1.153418 -0.0413,13.663248 c 0,0 -0.0279,2.639891 -2.65117,3.414372 z"
         id="path170583" />
      <g
         id="g178158"
         transform="translate(0.00963986,0.02518298)"
         style="opacity:1">
        <path
           style="fill:#f4f3de;fill-opacity:1;stroke:none;stroke-width:0.264583px;stroke-linecap:butt;stroke-linejoin:miter;stroke-opacity:1"
           d="m 78.249835,47.014796 0.222168,-0.406331 11.505953,-6.746886 0.923751,-9.939086 -7.600479,-4.677216 -11.459181,6.793658 c 0,0 -0.492868,0.257147 -0.740915,-0.156264 l -0.837645,-1.70293 c 1.761133,-7.441406 6.313041,-10.192341 9.36538,-11.107356 3.052339,-0.915015 5.904454,-0.553516 8.65923,0.63108 2.754776,1.184596 3.40747,2.971373 4.591981,3.053201 1.184511,0.08183 5.551945,-1.136231 5.551945,-1.136231 v 16.604118 c 0,0 -1.234923,0.168805 -1.926412,0.547812 -0.691489,0.379007 -1.000546,1.144801 -1.235795,1.904447 -0.23525,0.759645 -1.358578,2.540851 -2.313559,3.636391 -0.95498,1.095541 -3.150831,3.065877 -4.853402,3.632626 -1.702572,0.566749 -4.037806,1.109805 -6.154472,0.808015 -0.483692,-0.08268 -2.523529,-0.491674 -3.441302,-0.987768 z"
           id="path153987" />
        <g
           id="g164766">
          <path
             style="opacity:1;fill:#cfc342;fill-opacity:1;stroke:none;stroke-width:0.264583px;stroke-linecap:butt;stroke-linejoin:miter;stroke-opacity:1"
             d="m 81.009394,30.624076 0.897439,1.897195 1.499633,-0.879901 c -1.19269,-0.935443 -2.397072,-1.017294 -2.397072,-1.017294 z"
             id="path158707" />
          <path
             style="opacity:1;fill:#cfc342;fill-opacity:1;stroke:none;stroke-width:0.264583px;stroke-linecap:butt;stroke-linejoin:miter;stroke-opacity:1"
             d="m 82.004296,32.77526 1.5875,-0.950846 c 0,0 1.074869,0.975651 1.240234,1.595768 l -1.943034,1.141015 z"
             id="path161995" />
          <path
             style="opacity:1;fill:#cfc342;fill-opacity:1;stroke:none;stroke-width:0.264583px;stroke-linecap:butt;stroke-linejoin:miter;stroke-opacity:1"
             d="m 83.649673,31.485416 1.231967,-0.74414 c -1.546159,-1.157552 -3.464388,-0.314193 -3.464388,-0.314193 0,0 1.240234,0.248047 2.232421,1.058333 z"
             id="path162191" />
          <path
             style="opacity:1;fill:#cfc342;fill-opacity:1;stroke:none;stroke-width:0.264583px;stroke-linecap:butt;stroke-linejoin:miter;stroke-opacity:1"
             d="m 83.856379,31.675586 1.281576,-0.760678 c 0,0 1.141015,0.975652 1.25677,1.595769 l -1.289843,0.768945 c -0.496094,-0.967383 -1.248503,-1.604036 -1.248503,-1.604036 z"
             id="path162349" />
          <path
             style="opacity:1;fill:#cfc342;fill-opacity:1;stroke:none;stroke-width:0.264583px;stroke-linecap:butt;stroke-linejoin:miter;stroke-opacity:1"
             d="m 81.009394,30.624076 0.897439,1.897195 1.499633,-0.879901 c -1.19269,-0.935443 -2.397072,-1.017294 -2.397072,-1.017294 z"
             id="path158707-9"
             transform="matrix(-0.98889656,0,0,-0.98889656,164.7344,69.221657)" />
          <path
             style="opacity:1;fill:#cfc342;fill-opacity:1;stroke:none;stroke-width:0.264583px;stroke-linecap:butt;stroke-linejoin:miter;stroke-opacity:1"
             d="m 82.013164,32.748655 1.617061,-0.939021 c 0,0 1.092606,1.049553 1.257971,1.66967 l -1.969639,1.152839 z"
             id="path161995-6"
             transform="matrix(-0.98889656,0,0,-0.98889656,164.7344,69.221657)" />
          <path
             style="opacity:1;fill:#cfc342;fill-opacity:1;stroke:none;stroke-width:0.264583px;stroke-linecap:butt;stroke-linejoin:miter;stroke-opacity:1"
             d="m 83.649673,31.485416 1.178758,-0.696843 c -1.546159,-1.157552 -3.337277,-0.402875 -3.337277,-0.402875 0,0 1.166332,0.289432 2.158519,1.099718 z"
             id="path162191-7"
             transform="matrix(-0.98889656,0,0,-0.98889656,164.7344,69.221657)" />
          <path
             style="opacity:1;fill:#cfc342;fill-opacity:1;stroke:none;stroke-width:0.264583px;stroke-linecap:butt;stroke-linejoin:miter;stroke-opacity:1"
             d="m 83.891852,31.675586 1.175157,-0.713381 c 0,0 1.179444,1.019994 1.295199,1.640111 l -1.224809,0.715735 c -0.496094,-0.967383 -1.245547,-1.642465 -1.245547,-1.642465 z"
             id="path162349-8"
             transform="matrix(-0.98889656,0,0,-0.98889656,164.7344,69.221657)" />
          <path
             style="fill:#cfc342;fill-opacity:1;stroke:none;stroke-width:0.251125px;stroke-linecap:butt;stroke-linejoin:miter;stroke-opacity:1"
             d="m 80.848841,30.890116 0.811963,1.760437 -1.448574,0.859578 c -0.0642,-1.43724 0.636611,-2.620015 0.636611,-2.620015 z"
             id="path158707-7" />
          <path
             style="fill:#cfc342;fill-opacity:1;stroke:none;stroke-width:0.251125px;stroke-linecap:butt;stroke-linejoin:miter;stroke-opacity:1"
             d="m 81.78854,32.906903 -1.575234,0.935053 c 0,0 0.08134,1.555532 0.468953,2.025437 l 1.947518,-1.139741 z"
             id="path161995-7" />
          <path
             style="fill:#cfc342;fill-opacity:1;stroke:none;stroke-width:0.251125px;stroke-linecap:butt;stroke-linejoin:miter;stroke-opacity:1"
             d="m 79.931277,33.682038 -1.08202,0.643024 c -0.04066,-1.832766 1.651622,-3.325163 1.651622,-3.325163 0,0 -0.647796,1.468799 -0.569602,2.682139 z"
             id="path162191-1" />
          <path
             style="fill:#cfc342;fill-opacity:1;stroke:none;stroke-width:0.251125px;stroke-linecap:butt;stroke-linejoin:miter;stroke-opacity:1"
             d="m 79.949446,33.990453 -1.122167,0.666361 c 0,0 -0.01947,1.656308 0.395517,2.087902 l 1.209118,-0.755879 C 79.958641,35.0719 79.949446,33.990453 79.949446,33.990453 Z"
             id="path162349-0" />
          <path
             style="fill:#cfc342;fill-opacity:1;stroke:none;stroke-width:0.248337px;stroke-linecap:butt;stroke-linejoin:miter;stroke-opacity:1"
             d="m 84.800239,38.748944 -0.845042,-1.814198 1.504922,-0.86965 c 0.06349,1.421281 -0.65988,2.683848 -0.65988,2.683848 z"
             id="path158707-9-5" />
          <path
             style="fill:#cfc342;fill-opacity:1;stroke:none;stroke-width:0.248337px;stroke-linecap:butt;stroke-linejoin:miter;stroke-opacity:1"
             d="M 83.849504,36.689558 85.4624,35.750597 c 0,0 -0.123408,-1.628036 -0.506719,-2.092723 l -1.966754,1.185615 z"
             id="path161995-6-3" />
          <path
             style="fill:#cfc342;fill-opacity:1;stroke:none;stroke-width:0.248337px;stroke-linecap:butt;stroke-linejoin:miter;stroke-opacity:1"
             d="m 85.723627,35.894318 1.173329,-0.692561 c 0.04021,1.812416 -1.697399,3.36369 -1.697399,3.36369 0,0 0.601397,-1.471261 0.52407,-2.671129 z"
             id="path162191-7-1" />
          <path
             style="fill:#cfc342;fill-opacity:1;stroke:none;stroke-width:0.248337px;stroke-linecap:butt;stroke-linejoin:miter;stroke-opacity:1"
             d="m 85.723363,35.594686 1.201336,-0.700957 c 0,0 -0.0084,-1.731169 -0.418768,-2.157971 l -1.299859,0.787535 c 0.468018,0.906756 0.517291,2.071393 0.517291,2.071393 z"
             id="path162349-8-7" />
        </g>
        <path
           id="path168471"
           style="fill:#f4f3de;fill-opacity:1;stroke:none;stroke-width:0.999999px;stroke-linecap:butt;stroke-linejoin:miter;stroke-opacity:1"
           d="m 407.92188,73.232422 c -0.42351,-0.0089 -0.86914,0.0037 -1.33594,0.04102 l -31.37696,7.689453 -0.17773,62.667965 33.41211,-8.39648 c 2.9831,-1.63519 6.96061,-4.02933 7.29102,-18.60547 0.33032,-14.57615 -5.237,-13.65618 -7.11524,-14.36329 6.29768,-3.866976 6.89332,-8.54249 7.07031,-16.351554 0.16583,-7.320999 -1.41505,-12.548405 -7.76757,-12.68164 z m -12.08985,17.246094 c 1.61613,-0.0044 2.22487,0.978677 1.88672,3.990234 -0.47048,4.189992 -0.97658,4.523439 -4.14844,4.867188 L 393.46875,90.875 c 0.94482,-0.2417 1.73088,-0.394758 2.36328,-0.396484 z m -0.46875,22.800784 c 1.78786,0.0231 2.18787,1.40234 1.9668,4.96875 -0.28309,4.56499 -0.63283,5.86719 -3.80469,6.21093 l -0.008,-10.89843 c 0.73486,-0.18799 1.3451,-0.28771 1.8457,-0.28125 z"
           transform="scale(0.26458333)" />
        <path
           style="fill:#f4f3de;fill-opacity:1;stroke:none;stroke-width:0.264583px;stroke-linecap:butt;stroke-linejoin:miter;stroke-opacity:1"
           d="m 110.65813,35.123437 7.67292,-1.912382 0.002,-3.680953 -2.88812,0.712987 0.0332,-12.737829 -4.81185,1.167411 z"
           id="path170083" />
      </g>
    </g>
  </g>
</svg>
